<svg width="85" height="64" viewBox="0 0 85 64" fill="none" xmlns="http://www.w3.org/2000/svg">
<path d="M42.251 52.8C45.0707 50.1 46.682 48.9 50.1059 46.7C50.0052 45.8 50.0052 45.4 49.9045 44.6C46.5813 46.7 45.0707 48 42.3517 50.6C42.251 51.4 42.251 51.9 42.251 52.8Z" fill="#3B68CF"/>
<path d="M46.5811 42.8C49.6022 40.4 51.3141 39.5 54.5367 37.9C54.9395 39.2 55.0402 39.8 55.443 41.1C51.8177 42.8 50.005 43.9 46.7825 46.3C46.7825 44.8 46.6818 44.2 46.5811 42.8Z" fill="#83CD38"/>
<path d="M52.7236 40.2C56.2483 38.3 58.061 37.5 61.787 36.9C62.5927 38.2 62.9955 38.8 63.8011 40.2C59.4708 41.1 57.356 41.9 53.5293 44C53.2272 42.4 53.0257 41.7 52.7236 40.2Z" fill="#4675DF"/>
<path d="M44.5674 55.5C47.5885 52.9 49.3005 51.7 52.9258 49.5C53.0265 50.2 53.1272 50.5 53.2279 51.3C49.4012 53.6 47.6892 54.9 44.5674 57.6C44.6681 56.7 44.6681 56.3 44.5674 55.5Z" fill="#FF6742"/>
<path d="M44.5674 53.7C47.5885 51.2 49.1998 49.9 52.7244 47.9C52.8251 48.6 52.8251 48.9 52.9258 49.5C49.3005 51.6 47.5885 52.9 44.5674 55.5C44.5674 54.7 44.5674 54.4 44.5674 53.7Z" fill="#FF7547"/>
<path d="M42.251 57.1C44.0637 55.4 45.0707 54.5 47.1855 52.9C47.0848 51.8 47.0848 51.2 47.0848 50.1C44.97 51.7 44.0637 52.5 42.251 54.2C42.251 55.3 42.251 55.9 42.251 57.1Z" fill="#E33C58"/>
<path d="M54.335 46.2C56.5505 45 57.8596 44.5 60.2765 43.6C60.5786 44.3 60.6793 44.7 60.9814 45.4C58.3631 46.3 57.1547 46.9 54.7378 48.1C54.5364 47.4 54.5364 47 54.335 46.2Z" fill="#FF5780"/>
<path d="M42.251 55.3C45.4735 52.3 47.2862 50.8 51.3144 48.3C51.2137 47.3 51.1129 46.7 50.9115 45.8C47.0848 48.2 45.3728 49.6 42.251 52.5C42.251 53.6 42.251 54.1 42.251 55.3Z" fill="#EC3A6C"/>
<path d="M59.3705 41.2C57.5578 41.9 55.8458 42.6 53.5296 43.9C53.4289 43.2 53.3282 42.7 53.1268 42.2C52.1198 42.8 51.1127 43.3 50.2064 43.9C50.2064 44.2 50.3071 44.5 50.3071 44.9C50.2064 45 50.005 45 49.9043 45.2C49.9043 45.6 50.005 45.9 50.005 46.5C50.3071 46.3 50.6092 46.1 50.9113 45.9C51.012 46.4 51.012 46.8999 51.1127 47.2999C54.1339 45.2999 56.6515 44.0999 60.8811 42.7999C60.7804 42.6999 60.7804 42.6 60.6796 42.4C60.4782 42.5 60.2768 42.5 59.9747 42.7C59.7733 42 59.6726 41.7 59.3705 41.2Z" fill="#33DAD3"/>
<path d="M49.9045 45.1C49.1995 45.5 48.5953 45.9 48.0918 46.3C48.1925 46.7 48.1925 47.1 48.1925 47.6C48.7967 47.2 49.4009 46.8 50.0052 46.4C50.0052 45.9 49.9045 45.6 49.9045 45.1Z" fill="#0C59AB"/>
<path d="M53.1265 41.7C52.1194 42.2 51.3138 42.8 50.2061 43.5C50.2061 43.6 50.2061 43.7 50.3068 43.9C51.2131 43.3 52.1194 42.8 53.2272 42.2C53.1265 42 53.1265 41.9 53.1265 41.7Z" fill="#1AAF2E"/>
<path d="M59.3706 39.2C56.7523 40 54.9396 40.8 53.127 41.7C53.127 41.8 53.2277 41.9999 53.2277 42.0999C53.3284 42.5999 53.4291 43.0999 53.6305 43.7999C55.9467 42.4999 57.6586 41.7999 59.4713 41.0999C59.3706 40.8999 59.3706 40.7 59.1692 40.4C59.4713 40.3 59.6727 40.3 59.8741 40.2C59.6727 40 59.4713 39.7 59.3706 39.2Z" fill="#0E64B9"/>
<path d="M50.9114 45.8C50.6093 45.9 50.3072 46.2001 50.0051 46.4001C49.3001 46.8001 48.6959 47.2 48.1924 47.6C48.2931 48 48.2931 48.6001 48.2931 49.2001C49.3001 48.5001 50.2065 47.9 51.1128 47.3C51.1128 46.8 51.1128 46.3 50.9114 45.8Z" fill="#2F3259"/>
<path d="M62.1904 42.5C63.8017 42.1 64.6073 41.9 66.3193 41.7C66.5207 42 66.6214 42.2 66.8228 42.5C65.1108 42.7 64.3052 42.9 62.6939 43.4C62.4925 43.1 62.3918 42.8 62.1904 42.5Z" fill="#5BE2DE"/>
<path d="M66.5201 39C65.3117 39.1 64.3047 39.2 63.3983 39.4C63.499 39.6 63.7004 39.8 63.8011 40.1C62.3913 40.4 61.1828 40.7 60.1758 41C60.2765 41.4 60.5786 41.8 60.6793 42.3C63.3983 41.5 64.9089 41.1 67.93 40.9C67.3258 40.2 67.1244 39.8 66.5201 39Z" fill="#2BA2CC"/>
<path d="M63.3987 39.4C62.2909 39.5 61.2839 39.8 59.874 40.3C59.9747 40.5 59.9747 40.7 60.1761 41C61.1832 40.7 62.3916 40.4 63.8015 40.1C63.7008 39.9 63.4994 39.7 63.3987 39.4Z" fill="#0C4AB2"/>
<path d="M60.1756 41C59.8735 41.1 59.6721 41.1 59.4707 41.2C59.6721 41.6 59.8735 42 60.0749 42.6C60.2763 42.5 60.4777 42.4 60.7799 42.3C60.5784 41.8 60.2763 41.4 60.1756 41Z" fill="#098AA9"/>
<path d="M59.8739 40.3C59.6725 40.4 59.4711 40.4 59.1689 40.5C59.2696 40.8 59.3704 40.9001 59.4711 41.2001C59.6725 41.1001 59.8739 41.1 60.176 41C59.9746 40.8 59.9746 40.6 59.8739 40.3Z" fill="#024094"/>
<path d="M70.6494 42.4C72.4621 42.4 73.3684 42.4 75.0804 42.6C75.3825 43 75.4832 43.1 75.7853 43.4C73.9727 43.2 73.0663 43.2 71.2536 43.2C71.0522 42.9 70.9515 42.8 70.6494 42.4Z" fill="#FFC0C4"/>
<path d="M62.291 31.7C63.3988 31.6 63.9023 31.7 65.01 31.8C65.2114 32.2 65.4128 32.3 65.715 32.6C64.6072 32.5 64.1037 32.5 62.9959 32.5C62.6938 32.1 62.4924 32 62.291 31.7Z" fill="#4574DE"/>
<path d="M69.0381 40.2C70.4479 40.1 71.1529 40.2 72.5627 40.3C72.8649 40.7 72.9656 40.8 73.2677 41.2C71.9585 41 71.2536 41 69.743 41C69.4409 40.7 69.3402 40.5 69.0381 40.2Z" fill="#53B2DE"/>
<path d="M71.6562 39C72.9654 39.1 73.6703 39.3 74.9795 39.7C75.3823 40.1 75.5837 40.2 75.9865 40.6C74.5767 40.2 73.8717 40.1 72.4619 39.9C72.1598 39.4 71.9584 39.3 71.6562 39Z" fill="#AEE0F9"/>
<path d="M64.708 37.7C66.0172 37.6 66.6214 37.6 67.9305 37.6C68.2327 37.9 68.3334 38.1 68.6355 38.4C67.3263 38.4 66.7221 38.4 65.3122 38.5C65.1108 38.2 65.0101 38 64.708 37.7Z" fill="#7097FC"/>
<path d="M61.9883 33.7C62.9953 33.6 63.5995 33.6 64.6066 33.6C64.808 34 65.0094 34.1 65.3115 34.4C64.2038 34.4 63.7003 34.4 62.5925 34.5C62.2904 34.1 62.1897 34 61.9883 33.7Z" fill="#FFF001"/>
<path d="M52.4219 37.2C53.4289 36.7 53.9324 36.4 54.9395 35.9C55.0402 36.3 55.1409 36.5 55.2416 36.8C54.2346 37.3 53.6303 37.5 52.5226 38.1C52.5226 37.8 52.5226 37.6 52.4219 37.2Z" fill="#3DB399"/>
<path d="M51.5156 34.4C52.5227 33.8 53.1269 33.6 54.1339 33.1C54.2346 33.5 54.2346 33.6 54.3353 34C53.3283 34.4 52.7241 34.7 51.717 35.3C51.717 34.9 51.6163 34.8 51.5156 34.4Z" fill="#045999"/>
<path d="M49.0986 36.9001C50.1057 36.2001 50.7099 35.9 51.8176 35.3C51.9183 35.7 51.9183 35.9 51.9183 36.3C50.8106 36.9 50.3071 37.2001 49.1993 37.9001C49.1993 37.5001 49.1993 37.4001 49.0986 36.9001Z" fill="#006181"/>
<path d="M46.682 43.6C45.1714 44.6 43.9629 45.7 42.251 47.4C42.251 48.7 42.251 49.4 42.251 50.6C44.4665 48.5 45.8763 47.3 48.0918 45.7C48.0918 45.6 48.0918 45.6 48.0918 45.5C47.689 45.8 47.3869 46.1 46.8834 46.4C46.7827 45.2 46.682 44.5 46.682 43.6Z" fill="#FCEE07"/>
<path d="M47.9912 45.6C45.8764 47.2 44.4666 48.3 42.1504 50.5C42.1504 50.6 42.1504 50.9 42.1504 51.1C44.3659 49 45.8764 47.8 47.9912 46.3C48.0919 46.1 48.0919 45.9 47.9912 45.6Z" fill="#3A6106"/>
<path d="M49.9042 41.4C48.595 42.2 47.588 42.9 46.6816 43.6C46.6816 44.5 46.7823 45.2 46.7823 46.3C47.1852 46 47.588 45.7 47.9908 45.4C47.9908 45.3 47.9908 45.1 47.9908 45C48.6957 44.4 49.5014 43.9 50.1056 43.4C50.1056 42.8 50.0049 42.3 49.9042 41.4Z" fill="#81BF02"/>
<path d="M50.3073 43.9C49.6024 44.3 48.8974 44.9 48.0918 45.5C48.0918 45.6 48.0918 45.6 48.0918 45.7C48.696 45.4 49.1995 45 49.9045 44.6C49.9045 44.8 49.9045 45 50.0052 45.2C50.1059 45.1 50.3073 45 50.408 44.9C50.3073 44.5 50.3073 44.2 50.3073 43.9Z" fill="#32CB06"/>
<path d="M49.8039 44.5C49.099 44.9 48.5954 45.3 47.9912 45.6C48.0919 45.8 48.0919 46 48.0919 46.3C48.5954 45.9 49.1997 45.5 49.9046 45.1C49.8039 44.9 49.8039 44.8 49.8039 44.5Z" fill="#0C5305"/>
<path d="M50.2066 43.5C49.5017 43.9 48.7967 44.5 48.0918 45.1C48.0918 45.2 48.0918 45.3 48.0918 45.5C48.8974 44.9 49.6024 44.4 50.3073 43.9C50.2066 43.7 50.2066 43.7 50.2066 43.5Z" fill="#1AA301"/>
<path d="M42.251 51.1C43.5601 50 44.1644 49.4 45.5742 48.3C45.5742 47.7 45.4735 47.4 45.4735 46.8C44.1644 47.8 43.5601 48.4 42.251 49.5C42.251 50.2 42.251 50.5 42.251 51.1Z" fill="#FD8B4D"/>
<path d="M58.665 36.4C60.7798 35.8 61.8876 35.6 63.9017 35.4C64.3045 36 64.6066 36.4 65.1101 37C62.7939 37.2 61.5855 37.4 59.37 38.1C59.0679 37.4 58.9672 37.1 58.665 36.4Z" fill="#51D4E6"/>
<path d="M43.8623 42.5C46.4806 40.2 47.8905 39.2 50.6095 37.5C50.8109 38.6 50.9116 39.2 51.0123 40.2C47.9912 42 46.5813 43.1 43.8623 45.4C43.8623 44.3 43.8623 43.7 43.8623 42.5Z" fill="#1EAB67"/>
<path d="M42.251 49C43.9629 47.4 44.97 46.6 46.7827 45.2C46.7827 44 46.682 43.4 46.682 42.2C44.8693 43.6 43.9629 44.3 42.251 46C42.251 47.1 42.251 47.7 42.251 49Z" fill="#2CA67D"/>
<path d="M42.251 47.3C43.7615 46 44.4665 45.2 46.0777 44C45.977 43.1 45.977 42.7 45.977 41.8C44.4665 43 43.7615 43.6 42.251 45C42.251 46 42.251 46.5 42.251 47.3Z" fill="#00997A"/>
<path d="M42.251 45.9001C44.0637 44.1001 45.0707 43.3 47.0848 41.8C46.9841 41 46.9841 40.6 46.9841 39.8C45.0707 41.2 44.1644 42.0001 42.251 43.7001C42.251 44.6001 42.251 45.0001 42.251 45.9001Z" fill="#4293B0"/>
<path d="M42.6533 42C45.2716 39.6 46.6815 38.5 49.4005 36.8C49.5012 37.5 49.5012 38.0001 49.6019 38.7001C46.6815 40.5001 45.2716 41.7001 42.6533 44.2001C42.6533 43.4001 42.6533 42.9 42.6533 42Z" fill="#027298"/>
<path d="M42.251 44.8C42.5527 44.6 42.6532 44.4 42.9549 44.2C42.9549 43.1 42.9549 42.5 42.9549 41.4C42.6532 41.6 42.5527 41.8 42.251 42C42.251 43.1 42.251 43.7 42.251 44.8Z" fill="#192263"/>
<path d="M63.0967 44.8C64.5065 44.4 65.2115 44.2 66.6213 43.9C66.8227 44.3 66.9234 44.4 67.0241 44.8C65.6143 45.1 64.9094 45.2 63.4995 45.6C63.2981 45.4 63.1974 45.1 63.0967 44.8Z" fill="#FDCB5A"/>
<path d="M55.2412 49.7C56.6511 48.9 57.356 48.6 58.8666 47.9C58.9673 48.3 59.068 48.6 59.1687 48.9C57.6581 49.6 56.9532 49.9 55.4426 50.7C55.4426 50.4 55.3419 50.2 55.2412 49.7Z" fill="#FE9D3E"/>
<path d="M56.4502 33.8C57.4572 33.5 57.9608 33.4 58.8671 33.1C59.0685 33.5 59.1692 33.6 59.3706 34.1C58.3636 34.3 57.7593 34.5 56.7523 34.8C56.6516 34.3 56.5509 34.1 56.4502 33.8Z" fill="#3DB19A"/>
<path d="M31.7773 25.1C32.0794 25.3 32.4822 25.5001 32.7843 25.7001C28.2526 30.7001 28.2526 30.7001 28.2526 30.7001C28.0512 30.6001 27.8498 30.6 27.6484 30.6C27.1449 30.4 26.6413 30.3001 26.0371 30.2001C30.0653 23.8001 30.0653 23.8 30.0653 23.8C30.166 24.1 30.4681 24.4 30.7702 24.6C30.9716 24.7 31.3744 24.9 31.7773 25.1Z" fill="#535353"/>
<path d="M41.8484 14.2C41.9491 14.2 42.2512 14.2 42.3519 14.1C41.647 15.9 41.647 15.9 41.647 15.9C41.647 16 41.647 16 41.647 16C41.5463 16.1 41.5463 16.1 41.5463 16.1C36.1082 22 36.1082 22 36.1082 22C35.6047 21.8 35.1012 21.6 34.497 21.3C34.0942 21.1 33.792 20.9 33.3892 20.6C32.9864 20.3 32.5836 20.2 32.0801 20.2C37.4174 11.5 37.4174 11.5 37.4174 11.5C37.4174 11.6 37.4174 11.6 37.4174 11.6C37.9209 12.6 38.928 13.5 40.0357 14C40.4385 14.1 41.0428 14.3 41.5463 14.3C41.7477 14.2 41.7477 14.2 41.8484 14.2Z" fill="#535353"/>
<path d="M51.2133 19.6C50.5083 20.2 49.8034 20.7 49.0985 21.2C48.4943 21.5 47.89 21.8 47.2858 22.1C41.7471 16.1 41.7471 16.1 41.7471 16.1C41.7471 15.9 41.7471 15.9 41.7471 15.9C41.7471 14.2 41.7471 14.2 41.7471 14.2C41.8478 14.2 41.8478 14.2 41.9485 14.2C42.0492 14.2 42.3513 14.2 42.452 14.1C42.8548 14.1 43.1569 14 43.5597 13.9C44.7682 13.5 45.6745 12.6 46.2788 11.5L51.2133 19.6Z" fill="#6D6D6D"/>
<path d="M58.4642 31.2C57.9607 31.3 57.4571 31.4 56.9536 31.6C56.7522 31.7 56.5508 31.7 56.3494 31.7C50.71 25.7 50.71 25.7 50.71 25.7C51.1128 25.5 51.5156 25.3 52.0191 25C52.6233 24.6 53.2276 24.2 53.8318 23.7L58.4642 31.2Z" fill="#6D6D6D"/>
<path d="M51.2131 19.6C50.5082 20.2 49.8032 20.7 49.0983 21.2C43.5596 13.9 43.5596 13.9 43.5596 13.9C44.768 13.5 45.6744 12.6 46.2786 11.5L51.2131 19.6Z" fill="#535353"/>
<path d="M58.4646 31.2C57.9611 31.3 57.4576 31.4 56.954 31.6C52.0195 25 52.0195 25 52.0195 25C52.6238 24.6 53.228 24.2 53.8322 23.7L58.4646 31.2Z" fill="#535353"/>
<path d="M30.6696 24.4C30.9717 24.6 31.3746 24.8 31.6767 25.1C27.5478 30.5 27.5478 30.5 27.5478 30.5C27.0443 30.3 26.5407 30.2 25.9365 30.1C29.9647 23.7 29.9647 23.7 29.9647 23.7C30.1661 23.9 30.3675 24.2 30.6696 24.4Z" fill="#494949"/>
<path d="M40.1363 13.9C34.5976 21.3 34.5976 21.3 34.5976 21.3C34.1947 21.1 33.8926 20.9 33.4898 20.6C33.087 20.3 32.6842 20.2 32.1807 20.2C37.518 11.6 37.518 11.6 37.518 11.6C38.0215 12.6 39.0286 13.4 40.1363 13.9Z" fill="#494949"/>
<path d="M73.1669 45.5C72.7641 45.5 72.2606 45.5 71.7571 45.6C82.5324 58.6 82.5324 58.6 82.5324 58.6C72.9655 53.1 62.8951 52 52.8247 55.6C49.5014 56.7 46.1782 58.3 42.7543 60.5C42.7543 59.5 42.7543 59.5 42.7543 59.5C42.6535 59.6 42.3514 59.9 42.2507 60C42.15 41.4 42.15 41.4 42.15 41.4C43.3585 40.2 44.5669 39.2 45.7754 38.2C44.5669 38.8 43.3585 39.5 42.15 40.3L42.0493 40.2C37.2155 35.7 32.3817 32.7 27.7493 31.2C24.0233 30.1 20.8007 30.2 17.3768 31.1C17.1754 31.2 17.1754 31.2 17.1754 31.2C0.559185 47.5 0.559185 47.5 0.559185 47.5C0.559185 47.5 4.58735 46.7 10.3275 47C0.0556641 60.1 0.0556641 60.1 0.0556641 60.1C0.156368 60.1 0.156368 60.1 0.156368 60C1.46552 59.4 10.5289 55.1 20.4986 55.1C27.6486 55.1 34.6979 58.3 41.6465 63.1C42.0493 63.4 42.0493 63.4 42.0493 63.4C42.15 63.4 42.15 63.4 42.15 63.4C42.2507 63.4 42.2507 63.4 42.2507 63.4C42.3514 63.3 42.3514 63.3 42.3514 63.3C42.7543 63.1 42.7543 63.1 42.7543 63.1C44.5669 61.9 46.2789 60.8 47.9909 59.8C50.2064 58.6 52.4219 57.6 54.6374 56.8C55.5437 56.5 56.45 56.2 57.2557 56C58.162 55.8 59.0683 55.6 59.9747 55.4C61.2838 55.2 62.6937 55.1 64.0028 55.1C73.2676 55.2 81.8275 58.9 84.043 59.9C84.4458 60 84.6472 60.1 84.6472 60.1L73.1669 45.5ZM1.66693 58.8C10.1261 48.3 10.1261 48.3 10.1261 48.3C11.1331 47 11.1331 47 11.1331 47C14.1543 47.2 17.5782 47.7 21.1028 48.8C24.9296 50.1 28.8571 52.2 32.5831 55C33.3888 55.7 34.1944 56.3 35 56.9C23.8219 51.9 12.3416 52.7 1.66693 58.8ZM41.6465 60.3C28.555 47.7 14.7585 43.3 2.17045 46.6C17.8803 32 17.8803 32 17.8803 32C25.6345 30 33.993 33.3 42.15 41L41.6465 60.3Z" fill="#5D5D5D"/>
<path d="M45.675 9.39998C45.675 11.5 43.963 13.2 41.8482 13.2C39.7335 13.2 38.0215 11.5 38.0215 9.39998C38.0215 7.29998 39.7335 5.59998 41.8482 5.59998C43.963 5.59998 45.675 7.29998 45.675 9.39998Z" fill="#535353"/>
<path d="M52.5222 22.5C52.5222 23.3 51.8173 24.1 50.911 24.1C50.1053 24.1 49.4004 23.4 49.4004 22.5C49.4004 21.6 50.1053 20.9 50.911 20.9C51.918 21 52.5222 21.7 52.5222 22.5Z" fill="#535353"/>
<path d="M51.012 24.7001C50.6092 24.7001 50.2064 24.6 49.9043 24.3C48.3937 25.1 46.8831 25.6 45.1712 26C41.143 26.7 37.1148 26.2 33.6909 24.4C33.3888 24.6 32.9859 24.8 32.4824 24.8C36.3092 26.9 40.7402 27.8 45.3726 26.9C47.4873 26.5 49.5014 25.7001 51.2134 24.7001C51.1127 24.7001 51.1127 24.7001 51.012 24.7001Z" fill="#535353"/>
<path d="M34.5968 22.7C34.5968 22.8 34.5968 22.9 34.5968 23.1C37.7186 24.7 41.344 25.2 44.8686 24.4C46.3792 24.2 47.6883 23.7 48.9975 23C48.9975 22.9 48.8968 22.7 48.8968 22.6C48.8968 22.4 48.9975 22.2 48.9975 22C47.6883 22.7 46.2785 23.3 44.7679 23.6C41.1426 24.3 37.5172 23.7 34.4961 22C34.4961 22.2 34.5968 22.4 34.5968 22.7Z" fill="#535353"/>
<path d="M56.7526 16.4C56.6519 16.4 56.6519 16.4 56.7526 16.4C55.947 16 54.9399 16.2 54.3357 17C53.5301 18.3 52.523 19.4 51.2139 20.4C51.6167 20.5 51.9188 20.5 52.2209 20.8C53.3287 19.8 54.3357 18.7 55.1413 17.5C55.242 17.4 55.4434 17.2 55.6449 17.1C55.7456 17.1 55.947 17.1 56.1484 17.2C56.3498 17.3 56.5512 17.5 56.5512 17.7C56.6519 17.8 56.6519 18.1 56.4505 18.2C55.4434 19.7 54.3357 21 53.1273 22.1C53.1273 22.2 53.1273 22.3 53.1273 22.5C53.1273 22.9 53.0265 23.2 52.9258 23.5C54.6378 22.2 56.1484 20.5 57.3568 18.8C57.8604 17.9 57.5582 16.9 56.7526 16.4Z" fill="#535353"/>
<path d="M33.9929 22.7C33.9929 23.5 33.288 24.2 32.3817 24.2C31.4753 24.2 30.8711 23.5 30.8711 22.7C30.8711 21.8 31.576 21.1 32.3817 21.1C33.1873 21.1 33.9929 21.8 33.9929 22.7Z" fill="#535353"/>
<path d="M32.6837 55C26.1379 51.4 19.1894 48.5 10.126 48.3C11.133 47 11.133 47 11.133 47C14.1541 47.2 17.5781 47.7 21.1027 48.8C24.9295 50 28.857 52.1 32.6837 55Z" fill="#D1D3D4"/>
<path d="M42.2505 63.4C30.7702 59.4 18.7864 56.8 0.256836 60.1C0.256836 60 0.256836 60 0.256836 60C1.56599 59.4 10.6294 55.1 20.5991 55.1C27.7491 55.1 34.7984 58.3 41.747 63.1C42.1498 63.4 42.1498 63.4 42.2505 63.4Z" fill="#D1D3D4"/>
<path d="M84.1438 60.1C65.7149 56.6 53.7311 59.3 42.3516 63.3C42.7544 63.1 42.7544 63.1 42.7544 63.1C44.5671 61.9 46.279 60.8 47.991 59.8C50.2065 58.6 52.422 57.6 54.6375 56.8C55.5438 56.5 56.4502 56.2 57.2558 56C58.1621 55.8 59.0685 55.6 59.9748 55.4C61.284 55.2 62.6938 55.1 64.003 55.1C73.2678 55.2 81.8276 58.9 84.0431 59.9L84.1438 60.1Z" fill="#D1D3D4"/>
<path d="M42.5526 0.7C42.5526 4.8 42.5526 4.8 42.5526 4.8C42.3511 4.7 42.1497 4.7 41.8476 4.7C41.7469 4.7 41.7469 4.7 41.7469 4.7C41.6462 4.7 41.6462 4.7 41.6462 4.7C41.4448 4.7 41.2434 4.7 41.042 4.8C41.042 0.7 41.042 0.7 41.042 0.7C41.042 0.3 41.3441 0 41.7469 0C42.2504 0 42.5526 0.3 42.5526 0.7Z" fill="#535353"/>
</svg>
