<svg width="79" height="56" viewBox="0 0 79 56" fill="none" xmlns="http://www.w3.org/2000/svg">
<path d="M78.2185 26.6L48.071 14.0977C47.9175 14.0331 47.7528 13.9999 47.5865 13.9999C47.4202 13.9999 47.2555 14.0331 47.102 14.0977L16.768 27.0517C16.5393 27.1497 16.3444 27.3138 16.2077 27.5233C16.0711 27.7329 15.9988 27.9785 16 28.2294C16.0012 28.4803 16.0759 28.7253 16.2145 28.9335C16.3532 29.1416 16.5497 29.3038 16.7794 29.3995L46.9269 41.9018C47.0806 41.9665 47.2455 41.9999 47.412 41.9999C47.5785 41.9999 47.7434 41.9665 47.8971 41.9018L78.2311 28.949C78.4601 28.8511 78.6554 28.687 78.7922 28.4772C78.929 28.2674 79.0013 28.0215 79 27.7703C78.9986 27.5191 78.9237 27.2739 78.7846 27.0657C78.6456 26.8574 78.4486 26.6954 78.2185 26.6V26.6Z" fill="#00A87C" fill-opacity="0.5"/>
<path d="M46.941 44.8441L26 36.3172V47.2386C26 47.4175 26.0386 47.5944 26.1132 47.7573C26.1878 47.9202 26.2967 48.0654 26.4325 48.1831C32.2747 53.2237 39.7572 55.9999 47.5006 55.9999C55.2441 55.9999 62.7265 53.2237 68.5687 48.1831C68.7044 48.0653 68.813 47.92 68.8874 47.7571C68.9618 47.5942 69.0002 47.4174 69 47.2386V35.9999L47.9136 44.8366C47.76 44.9014 47.595 44.9355 47.428 44.9368C47.2611 44.9381 47.0956 44.9066 46.941 44.8441Z" fill="#00A87C" fill-opacity="0.5"/>
<g clip-path="url(#clip0)">
<path d="M49.2673 13.2098H44.4687C43.4665 9.22597 41.0972 5.88936 37.5868 3.53409C34.236 1.28605 29.9535 0.0479736 25.5282 0.0479736C21.3255 0.0479736 17.7594 1.14904 14.9291 3.32091C12.7979 4.95626 11.0716 7.21279 9.7983 10.0278C9.6317 10.3964 9.79527 10.8305 10.1638 10.9972C10.5326 11.1638 10.9665 11.0001 11.1332 10.6316C13.8698 4.58096 18.7129 1.5131 25.5282 1.5131C29.666 1.5131 33.6586 2.66291 36.7705 4.75079C39.8676 6.82881 41.9907 9.74022 42.9534 13.2099H42.2427C41.8381 13.2099 41.5102 13.5378 41.5102 13.9425V15.2762H38.8764C37.0596 9.61493 31.9227 5.38545 25.7105 4.98526C25.5075 4.971 25.3102 5.04346 25.1624 5.18194C25.0146 5.32032 24.931 5.51368 24.931 5.71631V7.78417C18.5076 8.01015 13.3515 13.3052 13.3515 19.7828C13.3515 20.0661 13.3627 20.348 13.3825 20.6283H8.48962V19.2945C8.48962 19.1164 8.42594 18.9531 8.32018 18.826C8.77594 17.6667 9.0859 16.8424 9.24225 16.3731C9.3277 16.1167 9.41764 15.779 9.53151 15.3516C9.68199 14.7867 9.8693 14.0837 10.1212 13.2926C10.244 12.9072 10.031 12.4951 9.64547 12.3723C9.25992 12.2493 8.84801 12.4625 8.72526 12.8481C8.46276 13.6726 8.27048 14.3945 8.11589 14.9745C8.01276 15.3616 7.9237 15.696 7.85241 15.9098C7.69196 16.3913 7.35456 17.2832 6.84958 18.5619H0.732517C0.328026 18.5619 0 18.8897 0 19.2944V23.4271C0 23.8317 0.327928 24.1596 0.732517 24.1596H4.58367C3.96356 25.6689 3.38173 27.0728 2.97255 28.0568C2.73075 28.6385 2.79511 29.2986 3.14471 29.8227C3.49452 30.347 4.07977 30.66 4.71033 30.66H7.01482C7.35144 32.3961 8.35426 37.3893 9.13659 39.4549C9.87106 41.3937 11.6073 42.5236 14.1576 42.7226C15.2259 42.8059 16.2171 42.7079 16.8657 42.6098L18.0605 49.351C18.1225 49.7008 18.4265 49.9557 18.7818 49.9557H38.7416C38.9554 49.9557 39.1585 49.8623 39.2977 49.7C39.4369 49.5377 39.4982 49.3228 39.4656 49.1114L38.4216 42.355C38.3599 41.9554 37.9863 41.6819 37.5858 41.7429C37.1861 41.8047 36.912 42.1789 36.9737 42.5788L37.8872 48.4908H19.3958L18.1792 41.6267C18.144 41.4275 18.0278 41.2517 17.8583 41.141C17.6888 41.0304 17.481 40.9951 17.2846 41.0427C17.2297 41.0563 11.7953 42.3375 10.5068 38.936C9.61813 36.5899 8.35339 29.8605 8.34069 29.7928C8.27585 29.4463 7.97331 29.195 7.62067 29.195H4.71033C4.50887 29.195 4.40057 29.0653 4.36336 29.0096C4.32625 28.954 4.24823 28.8046 4.32537 28.6193C4.78484 27.5138 5.46228 25.879 6.16726 24.1597H7.7571C8.16169 24.1597 8.48962 23.8319 8.48962 23.4272V22.0935H13.5774C14.1748 25.1368 15.9362 27.8676 18.5394 29.6669C18.8723 29.8969 19.3283 29.8136 19.5585 29.4809C19.7884 29.1481 19.7052 28.6918 19.3725 28.4617C17.167 26.9374 15.6495 24.6521 15.0741 22.0935H21.2492C21.6538 22.0935 21.9817 21.7657 21.9817 21.361C21.9817 20.9563 21.6539 20.6285 21.2492 20.6285H14.8518C14.8292 20.3485 14.8167 20.0665 14.8167 19.783C14.8167 14.1133 19.3158 9.47479 24.9312 9.2494V19.2748C24.9312 19.5303 25.0644 19.7675 25.2827 19.9004L28.6056 21.9237L34.2906 25.3854C32.3674 28.4489 29.0057 30.3249 25.3587 30.3249C24.152 30.3249 22.9687 30.123 21.842 29.7244C21.4606 29.5892 21.042 29.7893 20.9072 30.1707C20.7723 30.5521 20.9721 30.9706 21.3534 31.1055C22.6373 31.5597 23.985 31.7899 25.3586 31.7899C29.5192 31.7899 33.3529 29.6461 35.5411 26.147L36.865 26.9532C36.9808 27.0237 37.1127 27.0601 37.2458 27.0601C37.3115 27.0601 37.3774 27.0513 37.4417 27.0334C37.6368 26.9793 37.8007 26.8469 37.8947 26.6676C38.9982 24.561 39.5816 22.1833 39.5816 19.7921C39.5816 18.7482 39.4715 17.7279 39.2639 16.7418H41.5101V18.0754C41.5101 18.48 41.8379 18.808 42.2426 18.808H43.5192C43.2352 24.2079 40.8052 30.2594 36.285 36.8103C36.1787 36.9643 36.1354 37.1533 36.164 37.3383L36.5231 39.6622C36.579 40.024 36.891 40.2829 37.2461 40.2829C37.2833 40.2829 37.3209 40.28 37.3588 40.2742C37.7586 40.2124 38.0328 39.8382 37.9709 39.4383L37.6562 37.4015C42.2472 30.6856 44.7093 24.4364 44.9862 18.808H49.2673C49.6718 18.808 49.9998 18.4801 49.9998 18.0754V13.9428C49.9998 13.5377 49.672 13.2098 49.2673 13.2098ZM7.02468 22.6945H5.67117C5.66931 22.6945 5.66736 22.6945 5.66551 22.6945H1.46503V20.0268H7.02468V22.6945V22.6945ZM36.9396 25.2829L35.6672 24.5081C35.6668 24.5078 35.6664 24.5074 35.6659 24.5072L29.9009 20.9968L26.3962 18.8628V6.52031C31.4801 7.14795 35.6563 10.6344 37.3295 15.2762H32.2564C31.8518 15.2762 31.5239 15.6041 31.5239 16.0088C31.5239 16.4133 31.8517 16.7413 32.2564 16.7413H37.764C37.9946 17.7228 38.1167 18.7442 38.1167 19.7916C38.1167 21.6842 37.7114 23.567 36.9396 25.2829ZM48.5349 17.3424H42.9752V14.6749H48.5349V17.3424Z" fill="#061058"/>
<path d="M46.7767 15.2743H44.7325C44.3279 15.2743 44 15.6021 44 16.0068C44 16.4115 44.3278 16.7393 44.7325 16.7393H46.7767C47.1813 16.7393 47.5093 16.4115 47.5093 16.0068C47.5093 15.6022 47.1814 15.2743 46.7767 15.2743Z" fill="#061058"/>
<path d="M5.26688 20.6263H3.22275C2.81816 20.6263 2.49023 20.9542 2.49023 21.3589C2.49023 21.7634 2.81807 22.0914 3.22275 22.0914H5.26688C5.67147 22.0914 5.9994 21.7635 5.9994 21.3589C5.9994 20.9543 5.67147 20.6263 5.26688 20.6263Z" fill="#061058"/>
</g>
<defs>
<clipPath id="clip0">
<rect width="50" height="50" fill="white" transform="translate(0 -0.00012207)"/>
</clipPath>
</defs>
</svg>
