<svg width="12" height="21" viewBox="0 0 12 21" fill="none" xmlns="http://www.w3.org/2000/svg">
<path d="M1.16043 2.32087C1.80132 2.32087 2.32086 1.80134 2.32086 1.16044C2.32086 0.519549 1.80132 0 1.16043 0C0.519538 0 0 0.519549 0 1.16044C0 1.80134 0.519538 2.32087 1.16043 2.32087Z" fill="white"/>
<path d="M4.17313 2.32087C4.81401 2.32087 5.33355 1.80134 5.33355 1.16044C5.33355 0.519549 4.81401 0 4.17313 0C3.53224 0 3.0127 0.519549 3.0127 1.16044C3.0127 1.80134 3.53224 2.32087 4.17313 2.32087Z" fill="white"/>
<path d="M1.16043 5.33306C1.80132 5.33306 2.32086 4.81352 2.32086 4.17263C2.32086 3.53174 1.80132 3.01221 1.16043 3.01221C0.519538 3.01221 0 3.53174 0 4.17263C0 4.81352 0.519538 5.33306 1.16043 5.33306Z" fill="white"/>
<path d="M4.17313 5.33306C4.81401 5.33306 5.33355 4.81352 5.33355 4.17263C5.33355 3.53174 4.81401 3.01221 4.17313 3.01221C3.53224 3.01221 3.0127 3.53174 3.0127 4.17263C3.0127 4.81352 3.53224 5.33306 4.17313 5.33306Z" fill="white"/>
<path d="M7.16043 5.33306C7.80132 5.33306 8.32086 4.81352 8.32086 4.17263C8.32086 3.53174 7.80132 3.01221 7.16043 3.01221C6.51955 3.01221 6 3.53174 6 4.17263C6 4.81352 6.51955 5.33306 7.16043 5.33306Z" fill="white"/>
<path d="M1.16043 8.34528C1.80132 8.34528 2.32086 7.82574 2.32086 7.18485C2.32086 6.54396 1.80132 6.02441 1.16043 6.02441C0.519538 6.02441 0 6.54396 0 7.18485C0 7.82574 0.519538 8.34528 1.16043 8.34528Z" fill="white"/>
<path d="M4.17313 8.34528C4.81401 8.34528 5.33355 7.82574 5.33355 7.18485C5.33355 6.54396 4.81401 6.02441 4.17313 6.02441C3.53224 6.02441 3.0127 6.54396 3.0127 7.18485C3.0127 7.82574 3.53224 8.34528 4.17313 8.34528Z" fill="white"/>
<path d="M7.16043 8.34528C7.80132 8.34528 8.32086 7.82574 8.32086 7.18485C8.32086 6.54396 7.80132 6.02441 7.16043 6.02441C6.51955 6.02441 6 6.54396 6 7.18485C6 7.82574 6.51955 8.34528 7.16043 8.34528Z" fill="white"/>
<path d="M10.1721 8.34528C10.813 8.34528 11.3326 7.82574 11.3326 7.18485C11.3326 6.54396 10.813 6.02441 10.1721 6.02441C9.53126 6.02441 9.01172 6.54396 9.01172 7.18485C9.01172 7.82574 9.53126 8.34528 10.1721 8.34528Z" fill="white"/>
<path d="M1.16043 14.3696C1.80132 14.3696 2.32086 13.85 2.32086 13.2091C2.32086 12.5682 1.80132 12.0487 1.16043 12.0487C0.519538 12.0487 0 12.5682 0 13.2091C0 13.85 0.519538 14.3696 1.16043 14.3696Z" fill="white"/>
<path d="M4.17313 14.3696C4.81401 14.3696 5.33355 13.85 5.33355 13.2091C5.33355 12.5682 4.81401 12.0487 4.17313 12.0487C3.53224 12.0487 3.0127 12.5682 3.0127 13.2091C3.0127 13.85 3.53224 14.3696 4.17313 14.3696Z" fill="white"/>
<path d="M7.16043 14.3696C7.80132 14.3696 8.32086 13.85 8.32086 13.2091C8.32086 12.5682 7.80132 12.0487 7.16043 12.0487C6.51955 12.0487 6 12.5682 6 13.2091C6 13.85 6.51955 14.3696 7.16043 14.3696Z" fill="white"/>
<path d="M10.1721 14.3696C10.813 14.3696 11.3326 13.85 11.3326 13.2091C11.3326 12.5682 10.813 12.0487 10.1721 12.0487C9.53126 12.0487 9.01172 12.5682 9.01172 13.2091C9.01172 13.85 9.53126 14.3696 10.1721 14.3696Z" fill="white"/>
<path d="M1.16043 17.3571C1.80132 17.3571 2.32086 16.8376 2.32086 16.1967C2.32086 15.5558 1.80132 15.0363 1.16043 15.0363C0.519538 15.0363 0 15.5558 0 16.1967C0 16.8376 0.519538 17.3571 1.16043 17.3571Z" fill="white"/>
<path d="M4.17313 17.3571C4.81401 17.3571 5.33355 16.8376 5.33355 16.1967C5.33355 15.5558 4.81401 15.0363 4.17313 15.0363C3.53224 15.0363 3.0127 15.5558 3.0127 16.1967C3.0127 16.8376 3.53224 17.3571 4.17313 17.3571Z" fill="white"/>
<path d="M7.16043 17.3571C7.80132 17.3571 8.32086 16.8376 8.32086 16.1967C8.32086 15.5558 7.80132 15.0363 7.16043 15.0363C6.51955 15.0363 6 15.5558 6 16.1967C6 16.8376 6.51955 17.3571 7.16043 17.3571Z" fill="white"/>
<path d="M1.16043 20.3693C1.80132 20.3693 2.32086 19.8498 2.32086 19.2089C2.32086 18.568 1.80132 18.0485 1.16043 18.0485C0.519538 18.0485 0 18.568 0 19.2089C0 19.8498 0.519538 20.3693 1.16043 20.3693Z" fill="white"/>
<path d="M4.17313 20.3693C4.81401 20.3693 5.33355 19.8498 5.33355 19.2089C5.33355 18.568 4.81401 18.0485 4.17313 18.0485C3.53224 18.0485 3.0127 18.568 3.0127 19.2089C3.0127 19.8498 3.53224 20.3693 4.17313 20.3693Z" fill="white"/>
</svg>
