<svg width="55" height="61" viewBox="0 0 55 61" fill="none" xmlns="http://www.w3.org/2000/svg">
<path d="M44.6765 24.4286C44.3723 24.4286 44.0805 24.3082 43.8654 24.0939C43.6503 23.8796 43.5294 23.5889 43.5294 23.2858V13.0001H19.4412C18.5285 13.0001 17.6532 13.3613 17.0079 14.0043C16.3626 14.6472 16 15.5193 16 16.4286V57.5715C16 58.4808 16.3626 59.3529 17.0079 59.9959C17.6532 60.6388 18.5285 61.0001 19.4412 61.0001H51.5588C52.4715 61.0001 53.3468 60.6388 53.9921 59.9959C54.6374 59.3529 55 58.4808 55 57.5715V24.4286H44.6765ZM22.8824 22.1429H36.6471C36.9513 22.1429 37.243 22.2633 37.4582 22.4777C37.6733 22.692 37.7941 22.9827 37.7941 23.2858C37.7941 23.5889 37.6733 23.8796 37.4582 24.0939C37.243 24.3082 36.9513 24.4286 36.6471 24.4286H22.8824C22.5781 24.4286 22.2864 24.3082 22.0713 24.0939C21.8561 23.8796 21.7353 23.5889 21.7353 23.2858C21.7353 22.9827 21.8561 22.692 22.0713 22.4777C22.2864 22.2633 22.5781 22.1429 22.8824 22.1429ZM48.1176 51.8572H22.8824C22.5781 51.8572 22.2864 51.7368 22.0713 51.5225C21.8561 51.3081 21.7353 51.0175 21.7353 50.7143C21.7353 50.4112 21.8561 50.1206 22.0713 49.9062C22.2864 49.6919 22.5781 49.5715 22.8824 49.5715H48.1176C48.4219 49.5715 48.7136 49.6919 48.9287 49.9062C49.1439 50.1206 49.2647 50.4112 49.2647 50.7143C49.2647 51.0175 49.1439 51.3081 48.9287 51.5225C48.7136 51.7368 48.4219 51.8572 48.1176 51.8572ZM48.1176 42.7143H22.8824C22.5781 42.7143 22.2864 42.5939 22.0713 42.3796C21.8561 42.1653 21.7353 41.8746 21.7353 41.5715C21.7353 41.2684 21.8561 40.9777 22.0713 40.7634C22.2864 40.549 22.5781 40.4286 22.8824 40.4286H48.1176C48.4219 40.4286 48.7136 40.549 48.9287 40.7634C49.1439 40.9777 49.2647 41.2684 49.2647 41.5715C49.2647 41.8746 49.1439 42.1653 48.9287 42.3796C48.7136 42.5939 48.4219 42.7143 48.1176 42.7143ZM48.1176 33.5715H22.8824C22.5781 33.5715 22.2864 33.4511 22.0713 33.2368C21.8561 33.0224 21.7353 32.7317 21.7353 32.4286C21.7353 32.1255 21.8561 31.8348 22.0713 31.6205C22.2864 31.4062 22.5781 31.2858 22.8824 31.2858H48.1176C48.4219 31.2858 48.7136 31.4062 48.9287 31.6205C49.1439 31.8348 49.2647 32.1255 49.2647 32.4286C49.2647 32.7317 49.1439 33.0224 48.9287 33.2368C48.7136 33.4511 48.4219 33.5715 48.1176 33.5715Z" fill="#076A50" fill-opacity="0.5"/>
<path d="M45 13.0001V23.0001H55L45 13.0001Z" fill="#076A50" fill-opacity="0.5"/>
<path d="M22.893 0.857178C10.5062 0.857178 0.428711 10.9347 0.428711 23.3215C0.428711 35.7082 10.5062 45.7857 22.893 45.7857C35.2798 45.7857 45.3573 35.7082 45.3573 23.3215C45.3573 10.9347 35.2798 0.857178 22.893 0.857178ZM22.893 44.0047C12.158 44.0047 2.20972 34.0564 2.20972 23.3215C2.20972 12.5865 12.158 2.63819 22.893 2.63819C33.6279 2.63819 43.5763 12.5865 43.5763 23.3215C43.5763 34.0564 33.6279 44.0047 22.893 44.0047Z" fill="white"/>
<path d="M30.4162 23.0382H23.2115V11.3406C23.2115 10.514 23.114 9.96429 22.2858 9.96429C21.4576 9.96429 21.4307 10.514 21.4307 11.3406V23.3214C21.4307 24.1481 22.1 24.819 22.9282 24.819H30.4164C31.2446 24.819 31.9139 24.7552 31.9139 23.9286C31.9139 23.102 31.2444 23.0382 30.4162 23.0382Z" fill="white"/>
</svg>
