<svg width="70" height="53" viewBox="0 0 70 53" fill="none" xmlns="http://www.w3.org/2000/svg">
<path d="M62.8758 48.2737C58.399 48.2737 58.2138 50.2541 54.2965 50.2541C50.4268 50.2541 50.1594 48.2737 45.7134 48.2737C41.2416 48.2737 41.0514 50.2541 37.1282 50.2541H29.1758C29.8066 50.0442 30.4364 49.8323 31.0572 49.6016C31.2759 48.4793 31.2139 47.3203 30.8765 46.2278C30.5391 45.1353 29.937 44.1431 29.1236 43.3395C28.3102 42.5358 27.3107 41.9457 26.2142 41.6217C25.1177 41.2976 23.958 41.2495 22.8384 41.4818C21.7221 44.6008 20.8776 47.8105 20.3144 51.075C20.2897 51.217 20.2964 51.3627 20.3339 51.5018C20.3713 51.6409 20.4387 51.7702 20.5313 51.8806C20.6239 51.9911 20.7394 52.0799 20.8699 52.1411C21.0004 52.2022 21.1427 52.2341 21.2868 52.2346H37.1302C41.6109 52.2346 41.7842 50.2541 45.7154 50.2541C49.5851 50.2541 49.8515 52.2346 54.2985 52.2346C58.7684 52.2346 58.9664 50.2541 62.8777 50.2541C63.1404 50.2541 63.3922 50.1498 63.5779 49.9641C63.7636 49.7784 63.868 49.5266 63.868 49.2639C63.868 49.0013 63.7636 48.7494 63.5779 48.5637C63.3922 48.378 63.1404 48.2737 62.8777 48.2737H62.8758Z" fill="#00A87C" fill-opacity="0.5"/>
<path d="M68.794 22.7479L65.0629 18.9633L66.1432 17.8612C66.7928 17.1954 67.1564 16.3021 67.1564 15.3718C67.1564 14.4416 66.7928 13.5483 66.1432 12.8824L59.0791 5.70736C58.4176 5.06359 57.531 4.70337 56.608 4.70337C55.6849 4.70337 54.7984 5.06359 54.1369 5.70736L50.7949 9.10082C51.1174 9.24766 51.4109 9.45124 51.6614 9.70188L62.2566 20.4606C62.4833 20.69 62.6709 20.9549 62.8122 21.2448L63.6727 20.3704L67.383 24.1333C67.6694 24.4272 67.8297 24.8215 67.8297 25.2319C67.8297 25.6423 67.6694 26.0365 67.383 26.3305L53.2546 40.6837C53.1551 40.7743 53.075 40.8843 53.0194 41.007C52.9638 41.1296 52.9338 41.2623 52.9312 41.3969C52.9287 41.5315 52.9536 41.6653 53.0044 41.7899C53.0553 41.9146 53.131 42.0276 53.2271 42.122C53.3231 42.2164 53.4373 42.2902 53.5628 42.3389C53.6884 42.3877 53.8225 42.4103 53.9571 42.4054C54.0916 42.4006 54.2238 42.3683 54.3454 42.3106C54.4671 42.253 54.5757 42.1711 54.6647 42.07L68.795 27.7218C69.443 27.0561 69.8055 26.1637 69.8053 25.2347C69.8051 24.3057 69.4423 23.4134 68.794 22.7479V22.7479Z" fill="#00A87C" fill-opacity="0.5"/>
<path d="M33.1439 48.7787C36.2847 47.4687 39.2967 45.8692 42.141 44.0009C50.1065 38.7116 56.601 31.4891 61.0174 23.0084C61.1145 22.8226 61.1501 22.6108 61.1192 22.4035C61.0882 22.1962 60.9923 22.0041 60.8451 21.8548L50.2499 11.0922C50.0994 10.9395 49.9035 10.8399 49.6916 10.8081C49.4796 10.7763 49.2631 10.8141 49.0745 10.9159C37.5087 17.1201 28.4984 27.2007 23.626 39.3875C24.8886 39.2958 26.1562 39.4747 27.344 39.9125C28.5319 40.3502 29.6125 41.0366 30.5136 41.9257C31.4147 42.8148 32.1155 43.8862 32.5692 45.068C33.0228 46.2499 33.2187 47.515 33.1439 48.7787V48.7787Z" fill="#00A87C" fill-opacity="0.5"/>
<path d="M46.5401 -0.00012207H2.97064C2.18278 -0.00012207 1.42718 0.312855 0.870081 0.869959C0.312977 1.42706 0 2.18266 0 2.97052V30.6965C0 31.4844 0.312977 32.24 0.870081 32.7971C1.42718 33.3542 2.18278 33.6672 2.97064 33.6672H19.626L17.9754 42.5791H16.8336C16.571 42.5791 16.3192 42.6834 16.1334 42.8691C15.9477 43.0548 15.8434 43.3067 15.8434 43.5693C15.8434 43.8319 15.9477 44.0838 16.1334 44.2695C16.3192 44.4552 16.571 44.5595 16.8336 44.5595H32.6771C32.9397 44.5595 33.1915 44.4552 33.3772 44.2695C33.5629 44.0838 33.6673 43.8319 33.6673 43.5693C33.6673 43.3067 33.5629 43.0548 33.3772 42.8691C33.1915 42.6834 32.9397 42.5791 32.6771 42.5791H31.5353L29.8847 33.6672H46.5401C47.3279 33.6672 48.0835 33.3542 48.6406 32.7971C49.1977 32.24 49.5107 31.4844 49.5107 30.6965V2.97052C49.5107 2.18266 49.1977 1.42706 48.6406 0.869959C48.0835 0.312855 47.3279 -0.00012207 46.5401 -0.00012207V-0.00012207ZM29.5272 42.5791H19.9835L21.6332 33.6672H27.8775L29.5272 42.5791ZM47.5303 30.6965C47.5303 30.9591 47.4259 31.211 47.2402 31.3967C47.0545 31.5824 46.8027 31.6867 46.5401 31.6867H2.97064C2.70802 31.6867 2.45616 31.5824 2.27045 31.3967C2.08475 31.211 1.98043 30.9591 1.98043 30.6965V2.97052C1.98043 2.7079 2.08475 2.45603 2.27045 2.27033C2.45616 2.08463 2.70802 1.98031 2.97064 1.98031H46.5401C46.8027 1.98031 47.0545 2.08463 47.2402 2.27033C47.4259 2.45603 47.5303 2.7079 47.5303 2.97052V30.6965Z" fill="#151A6A"/>
<path d="M42.5793 3.96069H6.93158C6.14372 3.96069 5.38812 4.27367 4.83102 4.83077C4.27392 5.38788 3.96094 6.14347 3.96094 6.93134V22.7748C3.96094 23.5626 4.27392 24.3182 4.83102 24.8753C5.38812 25.4324 6.14372 25.7454 6.93158 25.7454H42.5793C43.3671 25.7454 44.1227 25.4324 44.6798 24.8753C45.2369 24.3182 45.5499 23.5626 45.5499 22.7748V6.93134C45.5499 6.14347 45.2369 5.38788 44.6798 4.83077C44.1227 4.27367 43.3671 3.96069 42.5793 3.96069ZM43.5695 22.7748C43.5695 23.0374 43.4652 23.2892 43.2795 23.4749C43.0938 23.6606 42.8419 23.765 42.5793 23.765H6.93158C6.66896 23.765 6.41709 23.6606 6.23139 23.4749C6.04569 23.2892 5.94137 23.0374 5.94137 22.7748V6.93134C5.94137 6.66871 6.04569 6.41685 6.23139 6.23115C6.41709 6.04545 6.66896 5.94112 6.93158 5.94112H42.5793C42.8419 5.94112 43.0938 6.04545 43.2795 6.23115C43.4652 6.41685 43.5695 6.66871 43.5695 6.93134V22.7748Z" fill="#151A6A"/>
<path d="M26.7362 27.7259H22.7754C22.5127 27.7259 22.2609 27.8302 22.0752 28.0159C21.8895 28.2016 21.7852 28.4535 21.7852 28.7161C21.7852 28.9787 21.8895 29.2306 22.0752 29.4163C22.2609 29.602 22.5127 29.7063 22.7754 29.7063H26.7362C26.9988 29.7063 27.2507 29.602 27.4364 29.4163C27.6221 29.2306 27.7264 28.9787 27.7264 28.7161C27.7264 28.4535 27.6221 28.2016 27.4364 28.0159C27.2507 27.8302 26.9988 27.7259 26.7362 27.7259Z" fill="#151A6A"/>
</svg>
