<svg width="34" height="34" viewBox="0 0 34 34" fill="none" xmlns="http://www.w3.org/2000/svg">
<path d="M33.6984 15.3492C31.9277 14.4618 29.9773 13.9999 28 13.9999C26.0227 13.9999 24.0723 14.4618 22.3016 15.3492C22.2106 15.3951 22.134 15.4658 22.0807 15.5533C22.0274 15.6408 21.9995 15.7416 22 15.8444V33.4495C22 33.5433 22.0237 33.6356 22.0689 33.7175C22.1142 33.7994 22.1795 33.8683 22.2585 33.9177C22.3376 33.967 22.4279 33.9951 22.5208 33.9994C22.6137 34.0036 22.7061 33.9838 22.7893 33.9419C24.4083 33.1299 26.1919 32.7073 28 32.7073C29.8081 32.7073 31.5917 33.1299 33.2107 33.9419C33.2939 33.9838 33.3863 34.0036 33.4792 33.9994C33.5721 33.9951 33.6624 33.967 33.7415 33.9177C33.8205 33.8683 33.8858 33.7994 33.9311 33.7175C33.9763 33.6356 34 33.5433 34 33.4495V15.8444C34.0005 15.7416 33.9726 15.6408 33.9193 15.5533C33.866 15.4658 33.7894 15.3951 33.6984 15.3492V15.3492ZM31.7893 28.8381C31.7435 28.9765 31.645 29.0908 31.5157 29.156C31.3863 29.2212 31.2365 29.2319 31.0993 29.1858C29.086 28.5141 26.9118 28.5141 24.8985 29.1858C24.8305 29.2086 24.7587 29.2177 24.6871 29.2125C24.6156 29.2073 24.5458 29.188 24.4817 29.1556C24.4175 29.1232 24.3604 29.0784 24.3134 29.0237C24.2665 28.9691 24.2306 28.9056 24.208 28.837C24.1854 28.7683 24.1764 28.6959 24.1815 28.6237C24.1866 28.5516 24.2058 28.4812 24.2379 28.4165C24.27 28.3518 24.3144 28.2941 24.3686 28.2468C24.4229 28.1994 24.4858 28.1633 24.5538 28.1405C26.7908 27.3933 29.207 27.3933 31.444 28.1405C31.5125 28.1631 31.5759 28.1993 31.6305 28.2468C31.6851 28.2944 31.7297 28.3524 31.762 28.4175C31.7942 28.4825 31.8133 28.5534 31.8181 28.626C31.823 28.6986 31.8136 28.7714 31.7904 28.8403L31.7893 28.8381ZM31.7893 24.4368C31.7435 24.5752 31.645 24.6895 31.5157 24.7547C31.3863 24.82 31.2365 24.8306 31.0993 24.7845C29.086 24.1128 26.9118 24.1128 24.8985 24.7845C24.8305 24.8073 24.7587 24.8164 24.6871 24.8112C24.6156 24.8061 24.5458 24.7867 24.4817 24.7543C24.4175 24.7219 24.3604 24.6771 24.3134 24.6225C24.2665 24.5678 24.2306 24.5043 24.208 24.4357C24.1854 24.367 24.1764 24.2946 24.1815 24.2224C24.1866 24.1503 24.2058 24.0799 24.2379 24.0152C24.27 23.9505 24.3144 23.8928 24.3686 23.8455C24.4229 23.7981 24.4858 23.762 24.5538 23.7392C26.7908 22.9921 29.207 22.9921 31.444 23.7392C31.5125 23.7618 31.5759 23.798 31.6305 23.8456C31.6851 23.8931 31.7297 23.9511 31.762 24.0162C31.7942 24.0813 31.8133 24.1521 31.8181 24.2247C31.823 24.2973 31.8136 24.3701 31.7904 24.439L31.7893 24.4368ZM31.7893 20.0355C31.7435 20.1739 31.645 20.2882 31.5157 20.3535C31.3863 20.4187 31.2365 20.4294 31.0993 20.3832C29.086 19.7115 26.9118 19.7115 24.8985 20.3832C24.8305 20.406 24.7587 20.4151 24.6871 20.4099C24.6156 20.4048 24.5458 20.3854 24.4817 20.353C24.4175 20.3206 24.3604 20.2758 24.3134 20.2212C24.2665 20.1665 24.2306 20.103 24.208 20.0344C24.1854 19.9657 24.1764 19.8933 24.1815 19.8211C24.1866 19.749 24.2058 19.6786 24.2379 19.6139C24.27 19.5492 24.3144 19.4916 24.3686 19.4442C24.4229 19.3968 24.4858 19.3607 24.5538 19.3379C26.7908 18.5908 29.207 18.5908 31.444 19.3379C31.5125 19.3606 31.5759 19.3967 31.6305 19.4443C31.6851 19.4918 31.7297 19.5498 31.762 19.6149C31.7942 19.68 31.8133 19.7508 31.8181 19.8234C31.823 19.896 31.8136 19.9688 31.7904 20.0377L31.7893 20.0355Z" fill="#00A87C" fill-opacity="0.5"/>
<path d="M20.6732 15.3492C18.755 14.4618 16.642 13.9999 14.5 13.9999C12.358 13.9999 10.245 14.4618 8.32678 15.3492C8.2281 15.3951 8.1452 15.4658 8.08745 15.5533C8.0297 15.6408 7.99941 15.7416 8.00001 15.8444V33.4495C7.99996 33.5433 8.02567 33.6356 8.07469 33.7175C8.12371 33.7994 8.19441 33.8683 8.28008 33.9177C8.36575 33.967 8.46355 33.9951 8.56418 33.9994C8.66481 34.0036 8.76494 33.9838 8.85505 33.9419C10.609 33.1299 12.5412 32.7073 14.5 32.7073C16.4588 32.7073 18.391 33.1299 20.1449 33.9419C20.2351 33.9838 20.3352 34.0036 20.4358 33.9994C20.5364 33.9951 20.6342 33.967 20.7199 33.9177C20.8056 33.8683 20.8763 33.7994 20.9253 33.7175C20.9743 33.6356 21 33.5433 21 33.4495V15.8444C21.0006 15.7416 20.9703 15.6408 20.9126 15.5533C20.8548 15.4658 20.7719 15.3951 20.6732 15.3492V15.3492ZM18.605 28.8381C18.5554 28.9765 18.4488 29.0908 18.3086 29.156C18.1684 29.2212 18.0062 29.2319 17.8575 29.1858C15.6765 28.5141 13.3211 28.5141 11.1401 29.1858C11.0664 29.2086 10.9885 29.2177 10.9111 29.2125C10.8336 29.2073 10.7579 29.188 10.6885 29.1556C10.619 29.1232 10.5571 29.0784 10.5062 29.0237C10.4553 28.9691 10.4165 28.9056 10.392 28.837C10.3675 28.7683 10.3577 28.6959 10.3633 28.6237C10.3688 28.5516 10.3896 28.4812 10.4244 28.4165C10.4592 28.3518 10.5073 28.2941 10.566 28.2468C10.6248 28.1994 10.6929 28.1633 10.7666 28.1405C13.1901 27.3933 15.8076 27.3933 18.231 28.1405C18.3052 28.1631 18.3739 28.1993 18.433 28.2468C18.4921 28.2944 18.5406 28.3524 18.5754 28.4175C18.6103 28.4825 18.631 28.5534 18.6363 28.626C18.6416 28.6986 18.6314 28.7714 18.6062 28.8403L18.605 28.8381ZM18.605 24.4368C18.5554 24.5752 18.4488 24.6895 18.3086 24.7547C18.1684 24.82 18.0062 24.8306 17.8575 24.7845C15.6765 24.1128 13.3211 24.1128 11.1401 24.7845C11.0664 24.8073 10.9885 24.8164 10.9111 24.8112C10.8336 24.8061 10.7579 24.7867 10.6885 24.7543C10.619 24.7219 10.5571 24.6771 10.5062 24.6225C10.4553 24.5678 10.4165 24.5043 10.392 24.4357C10.3675 24.367 10.3577 24.2946 10.3633 24.2224C10.3688 24.1503 10.3896 24.0799 10.4244 24.0152C10.4592 23.9505 10.5073 23.8928 10.566 23.8455C10.6248 23.7981 10.6929 23.762 10.7666 23.7392C13.1901 22.9921 15.8076 22.9921 18.231 23.7392C18.3052 23.7618 18.3739 23.798 18.433 23.8456C18.4921 23.8931 18.5406 23.9511 18.5754 24.0162C18.6103 24.0813 18.631 24.1521 18.6363 24.2247C18.6416 24.2973 18.6314 24.3701 18.6062 24.439L18.605 24.4368ZM18.605 20.0355C18.5554 20.1739 18.4488 20.2882 18.3086 20.3535C18.1684 20.4187 18.0062 20.4294 17.8575 20.3832C15.6765 19.7115 13.3211 19.7115 11.1401 20.3832C11.0664 20.406 10.9885 20.4151 10.9111 20.4099C10.8336 20.4048 10.7579 20.3854 10.6885 20.353C10.619 20.3206 10.5571 20.2758 10.5062 20.2212C10.4553 20.1665 10.4165 20.103 10.392 20.0344C10.3675 19.9657 10.3577 19.8933 10.3633 19.8211C10.3688 19.749 10.3896 19.6786 10.4244 19.6139C10.4592 19.5492 10.5073 19.4916 10.566 19.4442C10.6248 19.3968 10.6929 19.3607 10.7666 19.3379C13.1901 18.5908 15.8076 18.5908 18.231 19.3379C18.3052 19.3606 18.3739 19.3967 18.433 19.4443C18.4921 19.4918 18.5406 19.5498 18.5754 19.6149C18.6103 19.68 18.631 19.7508 18.6363 19.8234C18.6416 19.896 18.6314 19.9688 18.6062 20.0377L18.605 20.0355Z" fill="#00A87C" fill-opacity="0.5"/>
<path d="M27.9677 22.4838H26.3226V9.8709H27.4193C27.5172 9.8709 27.6133 9.8447 27.6977 9.79502C27.782 9.74533 27.8515 9.67398 27.899 9.58836C27.9464 9.50274 27.9701 9.40598 27.9675 9.30812C27.965 9.21027 27.9363 9.11488 27.8844 9.03187L25.4649 5.16026C25.3177 4.92303 25.1122 4.72744 24.868 4.59209C24.6238 4.45674 24.349 4.38615 24.0698 4.38703H14.8064V3.29026H18.6452C18.7906 3.29026 18.9301 3.23248 19.0329 3.12964C19.1358 3.0268 19.1935 2.88731 19.1935 2.74187V0.548326C19.1935 0.402885 19.1358 0.2634 19.0329 0.160558C18.9301 0.0577153 18.7906 -6.10352e-05 18.6452 -6.10352e-05H14.2581C14.1126 -6.10352e-05 13.9731 0.0577153 13.8703 0.160558C13.7674 0.2634 13.7097 0.402885 13.7097 0.548326V4.38703H4.44632C4.16712 4.38615 3.89235 4.45674 3.64815 4.59209C3.40395 4.72744 3.19845 4.92303 3.05122 5.16026L0.631742 9.03187C0.57986 9.11488 0.551144 9.21027 0.548575 9.30812C0.546005 9.40598 0.569676 9.50274 0.61713 9.58836C0.664584 9.67398 0.734091 9.74533 0.818435 9.79502C0.902778 9.8447 0.998884 9.8709 1.09677 9.8709H2.19355V22.4838H0.548387C0.402946 22.4838 0.263461 22.5416 0.160619 22.6444C0.0577763 22.7473 0 22.8867 0 23.0322C0 23.1776 0.0577763 23.3171 0.160619 23.42C0.263461 23.5228 0.402946 23.5806 0.548387 23.5806H27.9677C28.1132 23.5806 28.2527 23.5228 28.3555 23.42C28.4583 23.3171 28.5161 23.1776 28.5161 23.0322C28.5161 22.8867 28.4583 22.7473 28.3555 22.6444C28.2527 22.5416 28.1132 22.4838 27.9677 22.4838ZM24.5343 5.74155L26.4323 8.77413H20.4685L15.9444 5.48381H24.0698C24.1628 5.48349 24.2543 5.50701 24.3356 5.55213C24.417 5.59725 24.4853 5.66247 24.5343 5.74155V5.74155ZM14.8064 1.09671H18.0968V2.19349H14.8064V1.09671ZM3.98184 5.74155C4.03077 5.66247 4.09916 5.59725 4.18048 5.55213C4.2618 5.50701 4.35332 5.48349 4.44632 5.48381H12.5718L8.04758 8.77413H2.08387L3.98184 5.74155ZM3.29032 9.8709H7.67742V22.4838H3.29032V9.8709ZM8.77419 9.60165L14.2581 5.61323L19.7419 9.60165V22.4838H17.5484V18.6451C17.5484 18.2088 17.3751 17.7903 17.0665 17.4818C16.758 17.1733 16.3395 16.9999 15.9032 16.9999H12.6129C12.1766 16.9999 11.7581 17.1733 11.4496 17.4818C11.1411 17.7903 10.9677 18.2088 10.9677 18.6451V22.4838H8.77419V9.60165ZM12.0645 18.6451C12.0645 18.4997 12.1223 18.3602 12.2251 18.2573C12.328 18.1545 12.4675 18.0967 12.6129 18.0967H13.7097V22.4838H12.0645V18.6451ZM14.8064 22.4838V18.0967H15.9032C16.0487 18.0967 16.1881 18.1545 16.291 18.2573C16.3938 18.3602 16.4516 18.4997 16.4516 18.6451V22.4838H14.8064ZM20.8387 22.4838V9.8709H25.2258V22.4838H20.8387Z" fill="#061058"/>
<path d="M14.258 12.0643C14.6918 12.0643 15.1159 11.9356 15.4767 11.6946C15.8374 11.4536 16.1186 11.111 16.2846 10.7102C16.4506 10.3093 16.494 9.8683 16.4094 9.44279C16.3248 9.01729 16.1158 8.62644 15.8091 8.31966C15.5023 8.01289 15.1114 7.80397 14.6859 7.71933C14.2604 7.6347 13.8194 7.67814 13.4186 7.84416C13.0177 8.01018 12.6752 8.29134 12.4341 8.65206C12.1931 9.01279 12.0645 9.43689 12.0645 9.87073C12.0645 10.4525 12.2956 11.0104 12.7069 11.4218C13.1183 11.8332 13.6762 12.0643 14.258 12.0643ZM14.258 8.77396C14.4749 8.77396 14.687 8.83828 14.8673 8.9588C15.0477 9.07931 15.1883 9.25061 15.2713 9.45102C15.3543 9.65143 15.376 9.87195 15.3337 10.0847C15.2914 10.2975 15.1869 10.4929 15.0335 10.6463C14.8802 10.7997 14.6847 10.9041 14.472 10.9464C14.2592 10.9888 14.0387 10.967 13.8383 10.884C13.6379 10.801 13.4666 10.6604 13.3461 10.4801C13.2256 10.2997 13.1612 10.0877 13.1612 9.87073C13.1612 9.57985 13.2768 9.30088 13.4825 9.0952C13.6881 8.88951 13.9671 8.77396 14.258 8.77396V8.77396Z" fill="#061058"/>
<path d="M10.9673 14.8062H12.0641C12.2095 14.8062 12.349 14.7484 12.4519 14.6456C12.5547 14.5427 12.6125 14.4032 12.6125 14.2578C12.6125 14.1124 12.5547 13.9729 12.4519 13.87C12.349 13.7672 12.2095 13.7094 12.0641 13.7094H10.9673C10.8219 13.7094 10.6824 13.7672 10.5796 13.87C10.4767 13.9729 10.4189 14.1124 10.4189 14.2578C10.4189 14.4032 10.4767 14.5427 10.5796 14.6456C10.6824 14.7484 10.8219 14.8062 10.9673 14.8062Z" fill="#061058"/>
<path d="M6.03188 11.5159H4.93511C4.78966 11.5159 4.65018 11.5736 4.54734 11.6765C4.4445 11.7793 4.38672 11.9188 4.38672 12.0643C4.38672 12.2097 4.4445 12.3492 4.54734 12.452C4.65018 12.5549 4.78966 12.6126 4.93511 12.6126H6.03188C6.17732 12.6126 6.31681 12.5549 6.41965 12.452C6.52249 12.3492 6.58027 12.2097 6.58027 12.0643C6.58027 11.9188 6.52249 11.7793 6.41965 11.6765C6.31681 11.5736 6.17732 11.5159 6.03188 11.5159Z" fill="#061058"/>
<path d="M6.03188 15.3546H4.93511C4.78966 15.3546 4.65018 15.4123 4.54734 15.5152C4.4445 15.618 4.38672 15.7575 4.38672 15.9029C4.38672 16.0484 4.4445 16.1879 4.54734 16.2907C4.65018 16.3936 4.78966 16.4513 4.93511 16.4513H6.03188C6.17732 16.4513 6.31681 16.3936 6.41965 16.2907C6.52249 16.1879 6.58027 16.0484 6.58027 15.9029C6.58027 15.7575 6.52249 15.618 6.41965 15.5152C6.31681 15.4123 6.17732 15.3546 6.03188 15.3546Z" fill="#061058"/>
<path d="M6.03188 19.1933H4.93511C4.78966 19.1933 4.65018 19.2511 4.54734 19.3539C4.4445 19.4568 4.38672 19.5962 4.38672 19.7417C4.38672 19.8871 4.4445 20.0266 4.54734 20.1295C4.65018 20.2323 4.78966 20.2901 4.93511 20.2901H6.03188C6.17732 20.2901 6.31681 20.2323 6.41965 20.1295C6.52249 20.0266 6.58027 19.8871 6.58027 19.7417C6.58027 19.5962 6.52249 19.4568 6.41965 19.3539C6.31681 19.2511 6.17732 19.1933 6.03188 19.1933Z" fill="#061058"/>
<path d="M23.5807 11.5159H22.4839C22.3385 11.5159 22.199 11.5736 22.0962 11.6765C21.9933 11.7793 21.9355 11.9188 21.9355 12.0643C21.9355 12.2097 21.9933 12.3492 22.0962 12.452C22.199 12.5549 22.3385 12.6126 22.4839 12.6126H23.5807C23.7261 12.6126 23.8656 12.5549 23.9685 12.452C24.0713 12.3492 24.1291 12.2097 24.1291 12.0643C24.1291 11.9188 24.0713 11.7793 23.9685 11.6765C23.8656 11.5736 23.7261 11.5159 23.5807 11.5159Z" fill="#061058"/>
<path d="M23.5807 15.3546H22.4839C22.3385 15.3546 22.199 15.4123 22.0962 15.5152C21.9933 15.618 21.9355 15.7575 21.9355 15.9029C21.9355 16.0484 21.9933 16.1879 22.0962 16.2907C22.199 16.3936 22.3385 16.4513 22.4839 16.4513H23.5807C23.7261 16.4513 23.8656 16.3936 23.9685 16.2907C24.0713 16.1879 24.1291 16.0484 24.1291 15.9029C24.1291 15.7575 24.0713 15.618 23.9685 15.5152C23.8656 15.4123 23.7261 15.3546 23.5807 15.3546Z" fill="#061058"/>
<path d="M23.5807 19.1933H22.4839C22.3385 19.1933 22.199 19.2511 22.0962 19.3539C21.9933 19.4568 21.9355 19.5962 21.9355 19.7417C21.9355 19.8871 21.9933 20.0266 22.0962 20.1295C22.199 20.2323 22.3385 20.2901 22.4839 20.2901H23.5807C23.7261 20.2901 23.8656 20.2323 23.9685 20.1295C24.0713 20.0266 24.1291 19.8871 24.1291 19.7417C24.1291 19.5962 24.0713 19.4568 23.9685 19.3539C23.8656 19.2511 23.7261 19.1933 23.5807 19.1933Z" fill="#061058"/>
<path d="M15.9033 14.2578C15.9033 14.4032 15.9611 14.5427 16.0639 14.6456C16.1668 14.7484 16.3063 14.8062 16.4517 14.8062H17.5485C17.6939 14.8062 17.8334 14.7484 17.9362 14.6456C18.0391 14.5427 18.0969 14.4032 18.0969 14.2578C18.0969 14.1124 18.0391 13.9729 17.9362 13.87C17.8334 13.7672 17.6939 13.7094 17.5485 13.7094H16.4517C16.3063 13.7094 16.1668 13.7672 16.0639 13.87C15.9611 13.9729 15.9033 14.1124 15.9033 14.2578Z" fill="#061058"/>
</svg>
