<svg width="54" height="57" viewBox="0 0 54 57" fill="none" xmlns="http://www.w3.org/2000/svg">
<path d="M35 18.1666C31.2422 18.1666 27.5687 19.281 24.4442 21.3687C21.3196 23.4564 18.8844 26.4238 17.4463 29.8956C16.0082 33.3674 15.632 37.1877 16.3651 40.8733C17.0982 44.559 18.9078 47.9445 21.565 50.6016C24.2222 53.2588 27.6077 55.0684 31.2933 55.8015C34.9789 56.5347 38.7992 56.1584 42.271 54.7203C45.7428 53.2823 48.7102 50.847 50.7979 47.7225C52.8857 44.5979 54 40.9245 54 37.1666C53.9945 32.1292 51.9909 27.2997 48.4289 23.7377C44.8669 20.1757 40.0374 18.1721 35 18.1666V18.1666ZM43.7056 34.4523L34.3251 42.2414C34.0769 42.4466 33.7707 42.5688 33.4495 42.5907C33.1282 42.6126 32.8082 42.5332 32.5345 42.3636L26.4645 38.5907C26.2785 38.4918 26.1148 38.3556 25.9836 38.1908C25.8524 38.026 25.7564 37.8359 25.7017 37.6325C25.6469 37.429 25.6346 37.2165 25.6654 37.008C25.6962 36.7996 25.7695 36.5997 25.8807 36.4208C25.9919 36.2419 26.1387 36.0877 26.312 35.9679C26.4853 35.848 26.6814 35.765 26.888 35.7241C27.0947 35.6831 27.3076 35.6851 27.5135 35.7298C27.7194 35.7745 27.9139 35.8611 28.0849 35.9841L33.2149 39.1734L41.745 32.0918C42.0612 31.8648 42.4516 31.7661 42.8376 31.8156C43.2237 31.8651 43.5766 32.0591 43.8253 32.3585C44.0739 32.6579 44.1999 33.0404 44.1777 33.429C44.1555 33.8175 43.9868 34.1832 43.7056 34.4523V34.4523Z" fill="#00A87C" fill-opacity="0.5"/>
<path d="M22.5 26.0999H8.09999C5.95255 26.1025 3.8938 26.9567 2.37533 28.4752C0.856851 29.9937 0.00261986 32.0524 0 34.1998V42.2998C0 43.0159 0.284463 43.7027 0.790811 44.209C1.29716 44.7154 1.98391 44.9998 2.7 44.9998H27.9C28.6161 44.9998 29.3028 44.7154 29.8092 44.209C30.3155 43.7027 30.6 43.0159 30.6 42.2998V34.1998C30.5974 32.0524 29.7431 29.9937 28.2247 28.4752C26.7062 26.9567 24.6474 26.1025 22.5 26.0999V26.0999ZM28.8 42.2998C28.8 42.5385 28.7052 42.7675 28.5364 42.9362C28.3676 43.105 28.1387 43.1998 27.9 43.1998H2.7C2.4613 43.1998 2.23239 43.105 2.0636 42.9362C1.89482 42.7675 1.8 42.5385 1.8 42.2998V34.1998C1.8019 32.5296 2.46626 30.9282 3.64733 29.7472C4.8284 28.5661 6.42972 27.9018 8.09999 27.8999H22.5C24.1703 27.9018 25.7716 28.5661 26.9526 29.7472C28.1337 30.9282 28.7981 32.5296 28.8 34.1998V42.2998Z" fill="#151A6A"/>
<path d="M15.2998 23.3999C17.829 23.397 20.2539 22.391 22.0424 20.6025C23.8309 18.814 24.8369 16.3892 24.8398 13.8599V9.53987C24.8398 7.00971 23.8347 4.58317 22.0456 2.79408C20.2565 1.00498 17.8299 -0.00012207 15.2998 -0.00012207C12.7696 -0.00012207 10.3431 1.00498 8.55397 2.79408C6.76487 4.58317 5.75977 7.00971 5.75977 9.53987V13.8599C5.76262 16.3892 6.76865 18.814 8.55712 20.6025C10.3456 22.391 12.7705 23.397 15.2998 23.3999V23.3999ZM7.55976 9.53987C7.55976 7.4871 8.37523 5.5184 9.82676 4.06687C11.2783 2.61534 13.247 1.79988 15.2998 1.79988C17.3525 1.79988 19.3212 2.61534 20.7728 4.06687C22.2243 5.5184 23.0398 7.4871 23.0398 9.53987V13.8599C23.0398 15.9126 22.2243 17.8813 20.7728 19.3329C19.3212 20.7844 17.3525 21.5999 15.2998 21.5999C13.247 21.5999 11.2783 20.7844 9.82676 19.3329C8.37523 17.8813 7.55976 15.9126 7.55976 13.8599V9.53987Z" fill="#151A6A"/>
<path d="M15.3004 18.8998C16.7321 18.8984 18.1048 18.329 19.1172 17.3166C20.1296 16.3043 20.699 14.9316 20.7004 13.4999C20.7004 13.2612 20.6056 13.0322 20.4368 12.8635C20.268 12.6947 20.0391 12.5999 19.8004 12.5999C19.5617 12.5999 19.3328 12.6947 19.164 12.8635C18.9952 13.0322 18.9004 13.2612 18.9004 13.4999C18.9004 14.4546 18.5211 15.3703 17.846 16.0454C17.1708 16.7206 16.2552 17.0999 15.3004 17.0999C14.3456 17.0999 13.4299 16.7206 12.7548 16.0454C12.0797 15.3703 11.7004 14.4546 11.7004 13.4999C11.7004 13.2612 11.6056 13.0322 11.4368 12.8635C11.268 12.6947 11.0391 12.5999 10.8004 12.5999C10.5617 12.5999 10.3328 12.6947 10.164 12.8635C9.99521 13.0322 9.90039 13.2612 9.90039 13.4999C9.90182 14.9316 10.4712 16.3043 11.4836 17.3166C12.496 18.329 13.8687 18.8984 15.3004 18.8998Z" fill="#151A6A"/>
</svg>
