<svg width="33" height="31" viewBox="0 0 33 31" fill="none" xmlns="http://www.w3.org/2000/svg">
<path d="M17.8087 27.6779C18.0576 27.7131 18.3114 27.69 18.5499 27.6106C18.7885 27.5311 19.0053 27.3974 19.1835 27.22L32.5253 13.8782C32.6764 13.7282 32.7961 13.5496 32.8776 13.3529C32.9591 13.1562 33.0007 12.9453 33 12.7323V5.62C33 5.19035 32.8293 4.7783 32.5255 4.47449C32.2217 4.17068 31.8096 4 31.38 4H24.2795C24.0617 4.00042 23.8462 4.04456 23.6457 4.12981C23.4453 4.21505 23.264 4.33966 23.1126 4.49626L9.3911 18.7452C9.33344 18.8051 9.29039 18.8775 9.26529 18.9567C9.24018 19.036 9.23371 19.1199 9.24638 19.2021L10.0812 24.628L26.9946 7.71466C27.0444 7.66308 27.104 7.62195 27.1699 7.59364C27.2358 7.56534 27.3067 7.55045 27.3784 7.54982C27.4501 7.5492 27.5212 7.56286 27.5875 7.59002C27.6539 7.61717 27.7142 7.65726 27.7649 7.70797C27.8156 7.75867 27.8557 7.81896 27.8828 7.88532C27.91 7.95169 27.9237 8.0228 27.923 8.0945C27.9224 8.1662 27.9075 8.23706 27.8792 8.30294C27.8509 8.36882 27.8098 8.42841 27.7582 8.47822L6.15811 30.0782C6.08261 30.1537 6.0312 30.2499 6.01037 30.3547C5.98954 30.4594 6.00024 30.568 6.0411 30.6666C6.08196 30.7653 6.15116 30.8496 6.23994 30.909C6.32872 30.9683 6.4331 31 6.53989 31H30.3C31.0161 31 31.7028 30.7155 32.2092 30.2092C32.7155 29.7028 33 29.0161 33 28.3C33 27.5839 32.7155 26.8972 32.2092 26.3908C31.7028 25.8845 31.0161 25.6 30.3 25.6H28.68C28.2503 25.6 27.8383 25.4293 27.5345 25.1255C27.2306 24.8217 27.06 24.4097 27.06 23.98C27.06 23.5503 27.2306 23.1383 27.5345 22.8345C27.8383 22.5307 28.2503 22.36 28.68 22.36H32.46C32.6032 22.36 32.7406 22.3031 32.8418 22.2018C32.9431 22.1006 33 21.9632 33 21.82C33 21.6768 32.9431 21.5394 32.8418 21.4382C32.7406 21.3369 32.6032 21.28 32.46 21.28H28.68C27.9639 21.28 27.2771 21.5645 26.7708 22.0708C26.2644 22.5772 25.98 23.2639 25.98 23.98C25.98 24.6961 26.2644 25.3828 26.7708 25.8892C27.2771 26.3955 27.9639 26.68 28.68 26.68H30.3C30.7296 26.68 31.1417 26.8507 31.4455 27.1545C31.7493 27.4583 31.92 27.8703 31.92 28.3C31.92 28.7297 31.7493 29.1417 31.4455 29.4455C31.1417 29.7493 30.7296 29.92 30.3 29.92H7.84345L11.0511 26.7124L17.8087 27.6779Z" fill="#00A87C" fill-opacity="0.5"/>
<path d="M22.092 1.37834C21.8774 1.32451 17.6114 -1.4475 12.5815 1.0241L11.5 1.55546L10.4185 1.02303C5.48222 -1.39959 1.04541 1.34604 0.907959 1.37834C0.634568 1.5118 0.404632 1.71782 0.244171 1.97308C0.0837107 2.22835 -0.000868023 2.52268 6.71697e-06 2.82276V19.2104C0.000220878 19.4385 0.0555175 19.6633 0.161349 19.8663C0.26718 20.0693 0.420522 20.2448 0.608765 20.3782C0.797007 20.5115 1.01477 20.5991 1.24415 20.6336C1.47352 20.6681 1.70796 20.6486 1.92817 20.5767C6.9345 18.9363 10.7005 20.8556 11.327 20.9724C11.4393 21.0092 11.5607 21.0092 11.673 20.9724C12.4189 20.833 15.9992 18.9137 21.0718 20.5767C21.292 20.6486 21.5265 20.6681 21.7559 20.6336C21.9852 20.5991 22.203 20.5115 22.3912 20.3782C22.5795 20.2448 22.7328 20.0693 22.8387 19.8663C22.9445 19.6633 22.9998 19.4385 23 19.2104V2.82276C23.0009 2.52268 22.9163 2.22835 22.7558 1.97308C22.5954 1.71782 22.3654 1.5118 22.092 1.37834V1.37834ZM18.0714 1.16784V5.45856L17.2801 4.93958C17.1901 4.88055 17.0844 4.84905 16.9762 4.84905C16.868 4.84905 16.7622 4.88055 16.6723 4.93958L15.8809 5.45856V1.16784C16.6084 1.08009 17.344 1.08009 18.0714 1.16784V1.16784ZM13.0711 1.98722C13.6185 1.72249 14.1934 1.51654 14.7857 1.37296V6.46421C14.7857 6.56167 14.8126 6.65732 14.8635 6.74093C14.9145 6.82454 14.9876 6.89299 15.075 6.93897C15.1624 6.98495 15.2609 7.00674 15.3599 7.00201C15.4589 6.99728 15.5548 6.96622 15.6373 6.91212L16.9762 6.0346L18.3151 6.91212C18.3976 6.96622 18.4935 6.99728 18.5925 7.00201C18.6915 7.00674 18.79 6.98495 18.8774 6.93897C18.9648 6.89299 19.0379 6.82454 19.0888 6.74093C19.1398 6.65732 19.1667 6.56167 19.1667 6.46421V1.37296C20.0163 1.59515 20.8343 1.92067 21.6019 2.342C21.6928 2.38664 21.7692 2.45524 21.8227 2.54014C21.8762 2.62504 21.9046 2.72289 21.9048 2.82276V17.023L21.4179 16.8615C18.363 15.8904 15.066 15.9472 12.0476 17.023V2.49059L13.0711 1.98722ZM1.09524 2.82276C1.0953 2.7228 1.12366 2.62484 1.17714 2.53983C1.23063 2.45483 1.30713 2.38614 1.39808 2.34146C1.62424 2.2844 5.42965 -0.22435 9.92888 1.98722L10.9524 2.49059V17.023C7.93797 15.926 4.63375 15.8691 1.58208 16.8615L1.09524 17.023V2.82276ZM21.4179 19.5549C16.2495 17.8629 11.8472 19.8311 11.5 19.8941C8.33586 18.6453 4.82672 18.5255 1.58208 19.5555C1.52647 19.5737 1.46723 19.5787 1.40926 19.5701C1.3513 19.5614 1.29626 19.5393 1.2487 19.5056C1.20114 19.4719 1.16242 19.4275 1.13573 19.3762C1.10905 19.3248 1.09517 19.268 1.09524 19.2104V18.1579L1.92817 17.8849C6.93396 16.244 10.6934 18.1622 11.327 18.2806C11.4385 18.3175 11.5593 18.3175 11.6709 18.2806C12.4167 18.1412 15.997 16.2219 21.0696 17.8849L21.9048 18.1579V19.2104C21.9049 19.268 21.891 19.3248 21.8643 19.3762C21.8376 19.4275 21.7989 19.4718 21.7513 19.5055C21.7037 19.5392 21.6487 19.5612 21.5907 19.5698C21.5327 19.5784 21.4735 19.5733 21.4179 19.5549V19.5549Z" fill="#151A6A"/>
</svg>
